<svg width="40" height="39" viewBox="0 0 40 39" fill="none" xmlns="http://www.w3.org/2000/svg">
<mask id="mask0_12_375" style="mask-type:alpha" maskUnits="userSpaceOnUse" x="0" y="0" width="40" height="39">
<ellipse cx="20" cy="19.5" rx="20" ry="19.5" fill="#59BDFE"/>
</mask>
<g mask="url(#mask0_12_375)">
<ellipse cx="20" cy="19.5" rx="20" ry="19.5" fill="url(#paint0_radial_12_375)"/>
<g filter="url(#filter0_f_12_375)">
<ellipse cx="25.3311" cy="23.3564" rx="10.0602" ry="9.80868" fill="#FC71A3"/>
</g>
<g filter="url(#filter1_f_12_375)">
<ellipse cx="7.59949" cy="20.0296" rx="7.59949" ry="20.0296" transform="matrix(0.682714 -0.730686 0.74766 0.664082 -10.0922 22.1326)" fill="#9C1EC9"/>
</g>
<g filter="url(#filter2_f_12_375)">
<ellipse cx="7.57412" cy="4.1629" rx="7.57412" ry="4.1629" transform="matrix(0.855039 0.518564 -0.537845 0.843043 23.515 1.74377)" fill="#FBC12D"/>
</g>
<g filter="url(#filter3_f_12_375)">
<ellipse cx="4.24083" cy="11.1773" rx="4.24083" ry="11.1773" transform="matrix(0.682714 -0.730686 0.74766 0.664082 -3.47375 28.0113)" fill="#EB73FF"/>
</g>
<g filter="url(#filter4_f_12_375)">
<path d="M24.7558 33.9977C21.2681 33.9977 21.3398 37.2359 24.7558 39.7881L34.1595 38.453L41.4307 32.2203L43.8521 24.2022L43.0816 13.1823L37.943 5.16424L34.1595 6.72835L32.9006 12.4002L37.943 22.7566C38.1447 25.4375 37.2039 27.0516 34.9368 29.9926C31.0799 33.4463 28.8287 33.9716 24.7558 33.9977Z" fill="#DC2AD5"/>
</g>
<g filter="url(#filter5_f_12_375)">
<ellipse cx="14.2928" cy="11.2258" rx="6.65012" ry="6.48387" fill="white"/>
</g>
<g filter="url(#filter6_f_12_375)">
<path d="M18.8683 1.25636C20.924 2.56188 22.1564 0.627101 21.1475 -2.15522L14.1508 -2.15523L7.41184 -1.20476L2.82861 2.61293L-1.05488 9.39404L-1.18218 16.0416L1.66348 16.5363L3.29715 13.4331L6.46998 6.23165C7.40632 4.57656 8.36994 4.03065 10.8638 3.14652C14.4965 2.55537 16.4872 1.25636 18.8683 1.25636Z" fill="#FCC154"/>
</g>
<g filter="url(#filter7_i_12_375)">
<path d="M20 10.4219C23.0124 10.4219 23.4231 10.4219 24.6555 10.4219C25.7509 10.4219 26.2986 10.6889 26.7093 10.8224C27.257 11.0894 27.6678 11.2229 28.0786 11.6234C28.4894 12.0239 28.7632 12.4244 28.9001 12.9584C29.0371 13.3589 29.174 13.8929 29.3109 14.9609C29.3109 16.1625 29.3109 16.4295 29.3109 19.5C29.3109 22.5705 29.3109 22.8375 29.3109 24.0391C29.3109 25.1071 29.0371 25.6411 28.9001 26.0416C28.6263 26.5756 28.4894 26.9761 28.0786 27.3766C27.6678 27.7771 27.257 28.0441 26.7093 28.1776C26.2986 28.3111 25.7509 28.4446 24.6555 28.5781C23.4231 28.5781 23.1493 28.5781 20 28.5781C16.8507 28.5781 16.5769 28.5781 15.3446 28.5781C14.2492 28.5781 13.7015 28.3111 13.2907 28.1776C12.743 27.9106 12.3322 27.7771 11.9215 27.3766C11.5107 26.9761 11.2368 26.5756 11.0999 26.0416C10.963 25.6411 10.8261 25.1071 10.6891 24.0391C10.6891 22.8375 10.6891 22.5705 10.6891 19.5C10.6891 16.4295 10.6891 16.1625 10.6891 14.9609C10.6891 13.8929 10.963 13.3589 11.0999 12.9584C11.3738 12.4244 11.5107 12.0239 11.9215 11.6234C12.3322 11.2229 12.743 10.9559 13.2907 10.8224C13.7015 10.6889 14.2492 10.5554 15.3446 10.4219C16.5769 10.4219 16.9877 10.4219 20 10.4219ZM20 8.41935C16.8507 8.41935 16.5769 8.41935 15.3446 8.41935C14.1123 8.41935 13.2907 8.68636 12.6061 8.95336C11.9215 9.22037 11.2368 9.62087 10.5522 10.2884C9.86758 10.9559 9.59373 11.4899 9.18295 12.2909C8.9091 12.9584 8.77218 13.7594 8.63525 14.9609C8.63525 16.1625 8.63525 16.563 8.63525 19.5C8.63525 22.5705 8.63525 22.8375 8.63525 24.0391C8.63525 25.2406 8.9091 26.0416 9.18295 26.7091C9.4568 27.3766 9.86758 28.0441 10.5522 28.7116C11.2368 29.3791 11.7845 29.6461 12.6061 30.0466C13.2907 30.3136 14.1123 30.4471 15.3446 30.5806C16.5769 30.5806 16.9877 30.5806 20 30.5806C23.0124 30.5806 23.4231 30.5806 24.6555 30.5806C25.8878 30.5806 26.7093 30.3136 27.394 30.0466C28.0786 29.7796 28.7632 29.3791 29.4478 28.7116C30.1325 28.0441 30.4063 27.5101 30.8171 26.7091C31.0909 26.0416 31.2279 25.2406 31.3648 24.0391C31.3648 22.8375 31.3648 22.437 31.3648 19.5C31.3648 16.563 31.3648 16.1625 31.3648 14.9609C31.3648 13.7594 31.0909 12.9584 30.8171 12.2909C30.5432 11.6234 30.1325 10.9559 29.4478 10.2884C28.7632 9.62087 28.2155 9.35387 27.394 8.95336C26.7093 8.68636 25.8878 8.55286 24.6555 8.41935C23.4231 8.41935 23.1493 8.41935 20 8.41935Z" fill="white"/>
<path d="M20 13.7594C16.7138 13.7594 14.1122 16.296 14.1122 19.5C14.1122 22.704 16.7138 25.2406 20 25.2406C23.2862 25.2406 25.8878 22.704 25.8878 19.5C25.8878 16.296 23.2862 13.7594 20 13.7594ZM20 23.238C17.9461 23.238 16.1661 21.636 16.1661 19.5C16.1661 17.4975 17.8092 15.762 20 15.762C22.0539 15.762 23.8339 17.364 23.8339 19.5C23.8339 21.5025 22.0539 23.238 20 23.238Z" fill="white"/>
<path d="M26.0247 14.9609C26.7809 14.9609 27.394 14.3632 27.394 13.6259C27.394 12.8886 26.7809 12.2909 26.0247 12.2909C25.2685 12.2909 24.6555 12.8886 24.6555 13.6259C24.6555 14.3632 25.2685 14.9609 26.0247 14.9609Z" fill="white"/>
</g>
</g>
<defs>
<filter id="filter0_f_12_375" x="-71.3585" y="-73.0817" width="193.379" height="192.876" filterUnits="userSpaceOnUse" color-interpolation-filters="sRGB">
<feFlood flood-opacity="0" result="BackgroundImageFix"/>
<feBlend mode="normal" in="SourceGraphic" in2="BackgroundImageFix" result="shape"/>
<feGaussianBlur stdDeviation="43.3147" result="effect1_foregroundBlur_12_375"/>
</filter>
<filter id="filter1_f_12_375" x="-155.782" y="-134.536" width="331.706" height="328.835" filterUnits="userSpaceOnUse" color-interpolation-filters="sRGB">
<feFlood flood-opacity="0" result="BackgroundImageFix"/>
<feBlend mode="normal" in="SourceGraphic" in2="BackgroundImageFix" result="shape"/>
<feGaussianBlur stdDeviation="75" result="effect1_foregroundBlur_12_375"/>
</filter>
<filter id="filter2_f_12_375" x="-65.7315" y="-82.7157" width="186.967" height="183.793" filterUnits="userSpaceOnUse" color-interpolation-filters="sRGB">
<feFlood flood-opacity="0" result="BackgroundImageFix"/>
<feBlend mode="normal" in="SourceGraphic" in2="BackgroundImageFix" result="shape"/>
<feGaussianBlur stdDeviation="43.3147" result="effect1_foregroundBlur_12_375"/>
</filter>
<filter id="filter3_f_12_375" x="-87.6976" y="-62.3398" width="190.952" height="189.35" filterUnits="userSpaceOnUse" color-interpolation-filters="sRGB">
<feFlood flood-opacity="0" result="BackgroundImageFix"/>
<feBlend mode="normal" in="SourceGraphic" in2="BackgroundImageFix" result="shape"/>
<feGaussianBlur stdDeviation="43.3147" result="effect1_foregroundBlur_12_375"/>
</filter>
<filter id="filter4_f_12_375" x="-77.8332" y="-94.8358" width="221.685" height="234.624" filterUnits="userSpaceOnUse" color-interpolation-filters="sRGB">
<feFlood flood-opacity="0" result="BackgroundImageFix"/>
<feBlend mode="normal" in="SourceGraphic" in2="BackgroundImageFix" result="shape"/>
<feGaussianBlur stdDeviation="50" result="effect1_foregroundBlur_12_375"/>
</filter>
<filter id="filter5_f_12_375" x="-62.3573" y="-65.2581" width="153.3" height="152.968" filterUnits="userSpaceOnUse" color-interpolation-filters="sRGB">
<feFlood flood-opacity="0" result="BackgroundImageFix"/>
<feBlend mode="normal" in="SourceGraphic" in2="BackgroundImageFix" result="shape"/>
<feGaussianBlur stdDeviation="35" result="effect1_foregroundBlur_12_375"/>
</filter>
<filter id="filter6_f_12_375" x="-101.182" y="-102.155" width="222.688" height="218.692" filterUnits="userSpaceOnUse" color-interpolation-filters="sRGB">
<feFlood flood-opacity="0" result="BackgroundImageFix"/>
<feBlend mode="normal" in="SourceGraphic" in2="BackgroundImageFix" result="shape"/>
<feGaussianBlur stdDeviation="50" result="effect1_foregroundBlur_12_375"/>
</filter>
<filter id="filter7_i_12_375" x="8.63525" y="8.41935" width="24.4621" height="27.3591" filterUnits="userSpaceOnUse" color-interpolation-filters="sRGB">
<feFlood flood-opacity="0" result="BackgroundImageFix"/>
<feBlend mode="normal" in="SourceGraphic" in2="BackgroundImageFix" result="shape"/>
<feColorMatrix in="SourceAlpha" type="matrix" values="0 0 0 0 0 0 0 0 0 0 0 0 0 0 0 0 0 0 127 0" result="hardAlpha"/>
<feOffset dx="1.73259" dy="5.19776"/>
<feGaussianBlur stdDeviation="2.59888"/>
<feComposite in2="hardAlpha" operator="arithmetic" k2="-1" k3="1"/>
<feColorMatrix type="matrix" values="0 0 0 0 0 0 0 0 0 0 0 0 0 0 0 0 0 0 0.25 0"/>
<feBlend mode="normal" in2="shape" result="effect1_innerShadow_12_375"/>
</filter>
<radialGradient id="paint0_radial_12_375" cx="0" cy="0" r="1" gradientUnits="userSpaceOnUse" gradientTransform="translate(40.8047 0.792188) scale(92.3719 90.0626)">
<stop stop-color="#F9ED32"/>
<stop offset="0.36" stop-color="#EE2A7B"/>
<stop offset="0.44" stop-color="#D22A8A"/>
<stop offset="0.6" stop-color="#8B2AB2"/>
<stop offset="0.83" stop-color="#1B2AF0"/>
<stop offset="0.88" stop-color="#002AFF"/>
</radialGradient>
</defs>
</svg>
