<svg width="143" height="71" viewBox="0 0 143 71" fill="none" xmlns="http://www.w3.org/2000/svg">
<path d="M30.6185 49.6958C28.1957 49.1943 26.036 47.9999 24.4851 46.3038C22.9342 44.6076 22.0816 42.5077 22.0637 40.3399C22.1291 36.0751 25.6973 32.2947 29.1018 31.6963C29.4619 31.6393 31.2296 31.5348 34.9178 31.3448C37.3402 31.2024 37.8203 31.1929 38.4969 30.8604C39.6535 30.2905 41.1921 28.9607 42.8616 25.8547C44.8694 22.0554 45.044 22.2358 45.5786 21.9509C46.1972 21.6323 46.8943 21.4471 47.6118 21.4107C48.3294 21.3744 49.0465 21.4879 49.7033 21.7419C51.6129 22.1884 51.8857 22.9007 53.5661 23.4137C55.6505 23.9532 57.8824 23.8696 59.9058 23.1762C64.2706 22.0459 87.8182 16.3088 120.183 8.29214C121.417 7.6724 122.853 7.42841 124.264 7.59876C125.287 7.76689 126.254 8.13565 127.089 8.67708C127.925 9.21851 128.608 9.91841 129.087 10.7237L134.324 11.0847C134.324 10.1348 134.324 9.18499 134.324 8.30164L129.72 3.92286C129.72 3.35295 129.72 2.78305 129.72 2.20364L116.309 5.60408C115.609 6.44892 114.684 7.13338 113.614 7.59876C112.958 7.88243 112.254 8.07473 111.53 8.16866L60.5933 20.3647C59.5021 20.5736 57.9417 20.7256 57.1888 19.9752C56.6105 19.4053 56.8614 18.6169 57.1888 16.1758C57.5161 13.7347 57.7017 12.31 57.3743 11.5786C56.9271 10.8216 56.2791 10.1683 55.484 9.67272C54.6889 9.17717 53.7696 8.85369 52.8022 8.72907C51.1982 8.47261 49.5287 8.72907 46.1788 10.4388C39.9154 13.5923 40.2428 15.3875 36.5982 16.5938C33.652 17.5436 30.7604 17.1447 24.9553 16.2898C19.1502 15.435 18.5937 14.3901 14.5782 14.3901C12.2103 14.3901 8.11839 14.3901 4.81211 16.6508C1.50583 18.9114 0.731093 22.3498 0.338267 24.126C-2.45516 36.9964 12.8323 47.7486 14.3054 48.7555C18.1573 51.396 20.8525 52.0514 23.264 52.0324C25.9386 51.9543 28.5149 51.1357 30.6185 49.6958Z" fill="black"/>
<path d="M117.062 5.02468C117.857 5.02468 118.502 4.46333 118.502 3.77088C118.502 3.07843 117.857 2.51709 117.062 2.51709C116.266 2.51709 115.622 3.07843 115.622 3.77088C115.622 4.46333 116.266 5.02468 117.062 5.02468Z" fill="black"/>
<path d="M121.59 3.76139C122.386 3.76139 123.031 3.20004 123.031 2.50759C123.031 1.81514 122.386 1.2538 121.59 1.2538C120.795 1.2538 120.15 1.81514 120.15 2.50759C120.15 3.20004 120.795 3.76139 121.59 3.76139Z" fill="black"/>
<path d="M126.01 2.50759C126.805 2.50759 127.45 1.94624 127.45 1.25379C127.45 0.561343 126.805 0 126.01 0C125.214 0 124.569 0.561343 124.569 1.25379C124.569 1.94624 125.214 2.50759 126.01 2.50759Z" fill="black"/>
<path d="M44.5054 38.3027C44.3492 37.8245 44.1432 37.3959 43.8875 37.0172C43.6366 36.6336 43.3359 36.3069 42.9856 36.037C42.6399 35.7672 42.2469 35.5612 41.8066 35.4191C41.3662 35.2771 40.8833 35.2061 40.3577 35.2061C39.496 35.2061 38.7124 35.4286 38.0069 35.8737C37.3014 36.3188 36.7403 36.9745 36.3236 37.841C35.907 38.7075 35.6986 39.7705 35.6986 41.0299C35.6986 42.2894 35.9093 43.3524 36.3307 44.2189C36.7521 45.0853 37.3227 45.7411 38.0424 46.1862C38.7621 46.6313 39.5717 46.8538 40.4714 46.8538C41.3047 46.8538 42.0386 46.6763 42.6731 46.3211C43.3123 45.9613 43.8094 45.4547 44.1645 44.8013C44.5244 44.1431 44.7043 43.369 44.7043 42.4788L45.2441 42.5924H40.8691V41.0299H46.4089V42.5924C46.4089 43.7904 46.1532 44.832 45.6418 45.7174C45.1352 46.6029 44.4344 47.2894 43.5395 47.7771C42.6494 48.2601 41.6267 48.5015 40.4714 48.5015C39.1835 48.5015 38.0518 48.1985 37.0765 47.5924C36.1058 46.9864 35.3482 46.1246 34.8037 45.0072C34.264 43.8898 33.9941 42.564 33.9941 41.0299C33.9941 39.8794 34.148 38.8448 34.4557 37.9263C34.7682 37.003 35.2086 36.217 35.7767 35.5683C36.3449 34.9196 37.0173 34.4225 37.7938 34.0768C38.5703 33.7312 39.4249 33.5584 40.3577 33.5584C41.1248 33.5584 41.8397 33.6744 42.5026 33.9064C43.1702 34.1336 43.7644 34.458 44.2853 34.8794C44.8108 35.296 45.2488 35.7956 45.5992 36.378C45.9496 36.9556 46.191 37.5972 46.3236 38.3027H44.5054ZM58.971 33.7572H60.7324V43.3879C60.7324 44.3822 60.498 45.27 60.0292 46.0513C59.5652 46.8278 58.9094 47.4409 58.0619 47.8907C57.2144 48.3358 56.22 48.5584 55.079 48.5584C53.9379 48.5584 52.9435 48.3358 52.096 47.8907C51.2485 47.4409 50.5903 46.8278 50.1216 46.0513C49.6575 45.27 49.4255 44.3822 49.4255 43.3879V33.7572H51.1869V43.2459C51.1869 43.9561 51.3432 44.5882 51.6557 45.1422C51.9682 45.6914 52.4132 46.1246 52.9909 46.4419C53.5733 46.7544 54.2693 46.9106 55.079 46.9106C55.8886 46.9106 56.5846 46.7544 57.167 46.4419C57.7494 46.1246 58.1945 45.6914 58.5022 45.1422C58.8147 44.5882 58.971 43.9561 58.971 43.2459V33.7572ZM66.0111 33.7572V48.3027H64.2498V33.7572H66.0111ZM68.7473 35.3197V33.7572H79.6564V35.3197H75.0825V48.3027H73.3211V35.3197H68.7473ZM81.2721 48.3027H79.4255L84.7665 33.7572H86.5846L91.9255 48.3027H90.0789L85.7324 36.0584H85.6187L81.2721 48.3027ZM81.9539 42.6209H89.3971V44.1834H81.9539V42.6209ZM94.1912 48.3027V33.7572H99.1059C100.242 33.7572 101.175 33.9513 101.904 34.3396C102.633 34.7231 103.173 35.2511 103.524 35.9234C103.874 36.5958 104.049 37.3604 104.049 38.2174C104.049 39.0745 103.874 39.8344 103.524 40.4973C103.173 41.1602 102.636 41.681 101.911 42.0598C101.187 42.4338 100.261 42.6209 99.1343 42.6209H95.1571V41.0299H99.0775C99.854 41.0299 100.479 40.9163 100.953 40.689C101.431 40.4618 101.776 40.1398 101.989 39.7231C102.207 39.3017 102.316 38.7998 102.316 38.2174C102.316 37.6351 102.207 37.1261 101.989 36.6905C101.772 36.2549 101.424 35.9187 100.945 35.6819C100.467 35.4405 99.8351 35.3197 99.0491 35.3197H95.9525V48.3027H94.1912ZM101.038 41.7686L104.617 48.3027H102.572L99.0491 41.7686H101.038Z" fill="black"/>
<path d="M60.7614 55.3076C60.6761 54.5879 60.3305 54.0292 59.7244 53.6315C59.1184 53.2338 58.375 53.0349 57.4943 53.0349C56.8504 53.0349 56.2869 53.1391 55.804 53.3474C55.3257 53.5557 54.9517 53.8422 54.6818 54.2068C54.4167 54.5714 54.2841 54.9857 54.2841 55.4497C54.2841 55.8379 54.3764 56.1717 54.5611 56.4511C54.7505 56.7257 54.9919 56.9554 55.2855 57.14C55.5791 57.3199 55.8868 57.4691 56.2088 57.5875C56.5308 57.7011 56.8267 57.7934 57.0966 57.8644L58.5739 58.2622C58.9526 58.3616 59.374 58.4989 59.8381 58.6741C60.3068 58.8493 60.7543 59.0884 61.1804 59.3914C61.6113 59.6897 61.9664 60.0733 62.2457 60.542C62.5251 61.0108 62.6648 61.586 62.6648 62.2679C62.6648 63.0538 62.4588 63.7641 62.0469 64.3985C61.6397 65.033 61.0431 65.5373 60.2571 65.9113C59.4758 66.2854 58.5265 66.4724 57.4091 66.4724C56.3674 66.4724 55.4654 66.3043 54.7031 65.9681C53.9455 65.632 53.3489 65.1632 52.9133 64.5619C52.4825 63.9606 52.2386 63.2622 52.1818 62.4667H54C54.0473 63.016 54.232 63.4705 54.554 63.8304C54.8807 64.1855 55.2926 64.4506 55.7898 64.6258C56.2917 64.7963 56.8314 64.8815 57.4091 64.8815C58.0814 64.8815 58.6851 64.7726 59.2202 64.5548C59.7552 64.3323 60.179 64.0245 60.4915 63.6315C60.804 63.2338 60.9602 62.7698 60.9602 62.2394C60.9602 61.7565 60.8253 61.3635 60.5554 61.0605C60.2855 60.7574 59.9304 60.5112 59.49 60.3218C59.0497 60.1324 58.5739 59.9667 58.0625 59.8247L56.2727 59.3133C55.1364 58.9866 54.2367 58.5202 53.5739 57.9142C52.911 57.3081 52.5795 56.515 52.5795 55.5349C52.5795 54.7205 52.7997 54.0103 53.24 53.4042C53.6851 52.7934 54.2817 52.3199 55.0298 51.9838C55.7827 51.6429 56.6231 51.4724 57.5511 51.4724C58.4886 51.4724 59.322 51.6405 60.0511 51.9767C60.7803 52.3081 61.3579 52.7626 61.7841 53.3403C62.215 53.918 62.4422 54.5737 62.4659 55.3076H60.7614ZM77.2653 56.2167H75.5039C75.3997 55.7101 75.2174 55.265 74.957 54.8815C74.7013 54.498 74.3888 54.176 74.0195 53.9156C73.6549 53.6504 73.2501 53.4516 72.805 53.319C72.36 53.1864 71.8959 53.1201 71.413 53.1201C70.5323 53.1201 69.7345 53.3427 69.0195 53.7877C68.3093 54.2328 67.7435 54.8886 67.3221 55.7551C66.9054 56.6216 66.6971 57.6845 66.6971 58.944C66.6971 60.2035 66.9054 61.2664 67.3221 62.1329C67.7435 62.9994 68.3093 63.6552 69.0195 64.1002C69.7345 64.5453 70.5323 64.7679 71.413 64.7679C71.8959 64.7679 72.36 64.7016 72.805 64.569C73.2501 64.4364 73.6549 64.2399 74.0195 63.9795C74.3888 63.7144 74.7013 63.39 74.957 63.0065C75.2174 62.6182 75.3997 62.1732 75.5039 61.6713H77.2653C77.1327 62.4146 76.8912 63.0799 76.5408 63.667C76.1904 64.2541 75.7548 64.7537 75.234 65.1656C74.7132 65.5728 74.1284 65.8829 73.4797 66.096C72.8358 66.3091 72.1469 66.4156 71.413 66.4156C70.1725 66.4156 69.0692 66.1126 68.1033 65.5065C67.1374 64.9004 66.3775 64.0387 65.8235 62.9213C65.2695 61.8038 64.9925 60.4781 64.9925 58.944C64.9925 57.4099 65.2695 56.0841 65.8235 54.9667C66.3775 53.8493 67.1374 52.9876 68.1033 52.3815C69.0692 51.7754 70.1725 51.4724 71.413 51.4724C72.1469 51.4724 72.8358 51.5789 73.4797 51.792C74.1284 52.0051 74.7132 52.3176 75.234 52.7295C75.7548 53.1367 76.1904 53.6339 76.5408 54.221C76.8912 54.8034 77.1327 55.4686 77.2653 56.2167ZM80.1115 66.2167V51.6713H81.8729V58.1485H89.6285V51.6713H91.3899V66.2167H89.6285V59.711H81.8729V66.2167H80.1115ZM107.189 58.944C107.189 60.4781 106.912 61.8038 106.358 62.9213C105.804 64.0387 105.044 64.9004 104.078 65.5065C103.112 66.1126 102.009 66.4156 100.768 66.4156C99.5279 66.4156 98.4247 66.1126 97.4588 65.5065C96.4929 64.9004 95.7329 64.0387 95.179 62.9213C94.625 61.8038 94.348 60.4781 94.348 58.944C94.348 57.4099 94.625 56.0841 95.179 54.9667C95.7329 53.8493 96.4929 52.9876 97.4588 52.3815C98.4247 51.7754 99.5279 51.4724 100.768 51.4724C102.009 51.4724 103.112 51.7754 104.078 52.3815C105.044 52.9876 105.804 53.8493 106.358 54.9667C106.912 56.0841 107.189 57.4099 107.189 58.944ZM105.484 58.944C105.484 57.6845 105.274 56.6216 104.852 55.7551C104.436 54.8886 103.87 54.2328 103.155 53.7877C102.445 53.3427 101.649 53.1201 100.768 53.1201C99.8878 53.1201 99.09 53.3427 98.375 53.7877C97.6648 54.2328 97.0989 54.8886 96.6775 55.7551C96.2609 56.6216 96.0525 57.6845 96.0525 58.944C96.0525 60.2035 96.2609 61.2664 96.6775 62.1329C97.0989 62.9994 97.6648 63.6552 98.375 64.1002C99.09 64.5453 99.8878 64.7679 100.768 64.7679C101.649 64.7679 102.445 64.5453 103.155 64.1002C103.87 63.6552 104.436 62.9994 104.852 62.1329C105.274 61.2664 105.484 60.2035 105.484 58.944ZM122.423 58.944C122.423 60.4781 122.146 61.8038 121.592 62.9213C121.038 64.0387 120.278 64.9004 119.312 65.5065C118.347 66.1126 117.243 66.4156 116.003 66.4156C114.762 66.4156 113.659 66.1126 112.693 65.5065C111.727 64.9004 110.967 64.0387 110.413 62.9213C109.859 61.8038 109.582 60.4781 109.582 58.944C109.582 57.4099 109.859 56.0841 110.413 54.9667C110.967 53.8493 111.727 52.9876 112.693 52.3815C113.659 51.7754 114.762 51.4724 116.003 51.4724C117.243 51.4724 118.347 51.7754 119.312 52.3815C120.278 52.9876 121.038 53.8493 121.592 54.9667C122.146 56.0841 122.423 57.4099 122.423 58.944ZM120.719 58.944C120.719 57.6845 120.508 56.6216 120.087 55.7551C119.67 54.8886 119.104 54.2328 118.389 53.7877C117.679 53.3427 116.884 53.1201 116.003 53.1201C115.122 53.1201 114.324 53.3427 113.609 53.7877C112.899 54.2328 112.333 54.8886 111.912 55.7551C111.495 56.6216 111.287 57.6845 111.287 58.944C111.287 60.2035 111.495 61.2664 111.912 62.1329C112.333 62.9994 112.899 63.6552 113.609 64.1002C114.324 64.5453 115.122 64.7679 116.003 64.7679C116.884 64.7679 117.679 64.5453 118.389 64.1002C119.104 63.6552 119.67 62.9994 120.087 62.1329C120.508 61.2664 120.719 60.2035 120.719 58.944ZM125.385 66.2167V51.6713H127.146V64.6542H133.908V66.2167H125.385Z" fill="black"/>
</svg>
