<svg width="40" height="40" viewBox="0 0 40 40" fill="none" xmlns="http://www.w3.org/2000/svg">
<mask id="mask0_12_397" style="mask-type:alpha" maskUnits="userSpaceOnUse" x="0" y="0" width="40" height="40">
<circle cx="20" cy="20" r="20" fill="#59BDFE"/>
</mask>
<g mask="url(#mask0_12_397)">
<circle cx="20" cy="20" r="20" fill="#0077FF"/>
<g filter="url(#filter0_f_12_397)">
<circle cx="25.3311" cy="23.9553" r="10.0602" fill="#52A3FF"/>
</g>
<g filter="url(#filter1_f_12_397)">
<ellipse cx="10.0714" cy="30.6473" rx="7.70414" ry="20.2577" transform="rotate(-47.6668 10.0714 30.6473)" fill="#3887FE"/>
</g>
<g filter="url(#filter2_f_12_397)">
<ellipse cx="27.7521" cy="9.41635" rx="7.62683" ry="4.23904" transform="rotate(31.8829 27.7521 9.41635)" fill="#2D77FB"/>
</g>
<g filter="url(#filter3_f_12_397)">
<ellipse cx="7.77835" cy="33.1643" rx="4.29923" ry="11.3046" transform="rotate(-47.6668 7.77835 33.1643)" fill="#80B3FF"/>
</g>
<g filter="url(#filter4_f_12_397)">
<path d="M24.7558 34.8694C21.2681 34.8694 21.3398 38.1907 24.7558 40.8083L34.1595 39.439L41.4307 33.0464L43.8521 24.8228L43.0816 13.5203L37.943 5.29666L34.1595 6.90088L32.9006 12.7182L37.943 23.3401C38.1447 26.0898 37.2039 27.7453 34.9368 30.7616C31.0799 34.3039 28.8287 34.8426 24.7558 34.8694Z" fill="#217CD1"/>
</g>
<g filter="url(#filter5_f_12_397)">
<circle cx="14.2928" cy="11.5136" r="6.65012" fill="white"/>
</g>
<g filter="url(#filter6_f_12_397)">
<path d="M18.8683 1.28857C20.924 2.62757 22.1564 0.643181 21.1475 -2.21048L14.1508 -2.21049L7.41184 -1.23565L2.82861 2.67993L-1.05488 9.63491L-1.18218 16.453L1.66348 16.9603L3.29715 13.7775L6.46998 6.39143C7.40631 4.69391 8.36994 4.13401 10.8638 3.2272C14.4965 2.6209 16.4872 1.28857 18.8683 1.28857Z" fill="#0659BB"/>
</g>
<g filter="url(#filter7_i_12_397)">
<path d="M21.1215 27.9901C12.5418 27.9901 7.64806 21.9915 7.44415 12.0099H11.7418C11.883 19.3362 15.0514 22.4394 17.561 23.0793V12.0099H21.6077V18.3284C24.0859 18.0565 26.6896 15.1772 27.568 12.0099H31.6147C31.2837 13.6525 30.624 15.2078 29.6767 16.5785C28.7294 17.9492 27.5149 19.1058 26.1093 19.976C27.6783 20.7711 29.0641 21.8965 30.1754 23.2779C31.2866 24.6593 32.0979 26.2654 32.5558 27.9901H28.1013C27.6902 26.4921 26.8548 25.1511 25.6996 24.1352C24.5445 23.1194 23.1211 22.4738 21.6077 22.2795V27.9901H21.1215Z" fill="white"/>
</g>
</g>
<defs>
<filter id="filter0_f_12_397" x="-71.3585" y="-72.7343" width="193.379" height="193.379" filterUnits="userSpaceOnUse" color-interpolation-filters="sRGB">
<feFlood flood-opacity="0" result="BackgroundImageFix"/>
<feBlend mode="normal" in="SourceGraphic" in2="BackgroundImageFix" result="shape"/>
<feGaussianBlur stdDeviation="43.3147" result="effect1_foregroundBlur_12_397"/>
</filter>
<filter id="filter1_f_12_397" x="-92.411" y="-70.7694" width="204.965" height="202.833" filterUnits="userSpaceOnUse" color-interpolation-filters="sRGB">
<feFlood flood-opacity="0" result="BackgroundImageFix"/>
<feBlend mode="normal" in="SourceGraphic" in2="BackgroundImageFix" result="shape"/>
<feGaussianBlur stdDeviation="43.3147" result="effect1_foregroundBlur_12_397"/>
</filter>
<filter id="filter2_f_12_397" x="-65.7315" y="-82.6154" width="186.967" height="184.063" filterUnits="userSpaceOnUse" color-interpolation-filters="sRGB">
<feFlood flood-opacity="0" result="BackgroundImageFix"/>
<feBlend mode="normal" in="SourceGraphic" in2="BackgroundImageFix" result="shape"/>
<feGaussianBlur stdDeviation="43.3147" result="effect1_foregroundBlur_12_397"/>
</filter>
<filter id="filter3_f_12_397" x="-87.6976" y="-61.717" width="190.952" height="189.763" filterUnits="userSpaceOnUse" color-interpolation-filters="sRGB">
<feFlood flood-opacity="0" result="BackgroundImageFix"/>
<feBlend mode="normal" in="SourceGraphic" in2="BackgroundImageFix" result="shape"/>
<feGaussianBlur stdDeviation="43.3147" result="effect1_foregroundBlur_12_397"/>
</filter>
<filter id="filter4_f_12_397" x="-77.8332" y="-94.7033" width="221.685" height="235.512" filterUnits="userSpaceOnUse" color-interpolation-filters="sRGB">
<feFlood flood-opacity="0" result="BackgroundImageFix"/>
<feBlend mode="normal" in="SourceGraphic" in2="BackgroundImageFix" result="shape"/>
<feGaussianBlur stdDeviation="50" result="effect1_foregroundBlur_12_397"/>
</filter>
<filter id="filter5_f_12_397" x="-62.3573" y="-65.1365" width="153.3" height="153.3" filterUnits="userSpaceOnUse" color-interpolation-filters="sRGB">
<feFlood flood-opacity="0" result="BackgroundImageFix"/>
<feBlend mode="normal" in="SourceGraphic" in2="BackgroundImageFix" result="shape"/>
<feGaussianBlur stdDeviation="35" result="effect1_foregroundBlur_12_397"/>
</filter>
<filter id="filter6_f_12_397" x="-101.182" y="-102.21" width="222.688" height="219.171" filterUnits="userSpaceOnUse" color-interpolation-filters="sRGB">
<feFlood flood-opacity="0" result="BackgroundImageFix"/>
<feBlend mode="normal" in="SourceGraphic" in2="BackgroundImageFix" result="shape"/>
<feGaussianBlur stdDeviation="50" result="effect1_foregroundBlur_12_397"/>
</filter>
<filter id="filter7_i_12_397" x="7.44415" y="12.0099" width="26.8442" height="21.1779" filterUnits="userSpaceOnUse" color-interpolation-filters="sRGB">
<feFlood flood-opacity="0" result="BackgroundImageFix"/>
<feBlend mode="normal" in="SourceGraphic" in2="BackgroundImageFix" result="shape"/>
<feColorMatrix in="SourceAlpha" type="matrix" values="0 0 0 0 0 0 0 0 0 0 0 0 0 0 0 0 0 0 127 0" result="hardAlpha"/>
<feOffset dx="1.73259" dy="5.19776"/>
<feGaussianBlur stdDeviation="2.59888"/>
<feComposite in2="hardAlpha" operator="arithmetic" k2="-1" k3="1"/>
<feColorMatrix type="matrix" values="0 0 0 0 0 0 0 0 0 0 0 0 0 0 0 0 0 0 0.25 0"/>
<feBlend mode="normal" in2="shape" result="effect1_innerShadow_12_397"/>
</filter>
</defs>
</svg>
